<?xml version="1.0" encoding="UTF-8" standalone="no"?>
<!-- Created with Inkscape (http://www.inkscape.org/) -->

<svg
   xmlns:dc="http://purl.org/dc/elements/1.1/"
   xmlns:cc="http://creativecommons.org/ns#"
   xmlns:rdf="http://www.w3.org/1999/02/22-rdf-syntax-ns#"
   xmlns:svg="http://www.w3.org/2000/svg"
   xmlns="http://www.w3.org/2000/svg"
   xmlns:inkscape="http://www.inkscape.org/namespaces/inkscape"
   version="1.1"
   width="2700"
   height="300"
   id="svg2"
   xml:space="preserve"><metadata
     id="metadata8"><rdf:RDF><cc:Work
         rdf:about=""><dc:format>image/svg+xml</dc:format><dc:type
           rdf:resource="http://purl.org/dc/dcmitype/StillImage" /></cc:Work></rdf:RDF></metadata><defs
     id="defs6"><clipPath
       id="clipPath16"><path
         d="M 0,240 2160,240 2160,0 0,0 0,240 z"
         inkscape:connector-curvature="0"
         id="path18" /></clipPath><clipPath
       id="clipPath28"><path
         d="m 63.9849,161.661 84.1741,0 0,-84.1756 -84.1741,0 0,84.1756 z"
         inkscape:connector-curvature="0"
         id="path30" /></clipPath><clipPath
       id="clipPath44"><path
         d="m 60.2402,165.404 91.6678,0 0,-91.6677 -91.6678,0 0,91.6677 z"
         inkscape:connector-curvature="0"
         id="path46" /></clipPath><clipPath
       id="clipPath60"><path
         d="m 49.0059,176.642 114.1361,0 0,-114.14 -114.1361,0 0,114.14 z"
         inkscape:connector-curvature="0"
         id="path62" /></clipPath><clipPath
       id="clipPath76"><path
         d="m 47.207,180.384 119.68,0 0,-121.6252 -119.68,0 0,121.6252 z"
         inkscape:connector-curvature="0"
         id="path78" /></clipPath><clipPath
       id="clipPath92"><path
         d="m 41.5366,184.131 129.0944,0 0,-129.1183 -129.0944,0 0,129.1183 z"
         inkscape:connector-curvature="0"
         id="path94" /></clipPath><clipPath
       id="clipPath110"><path
         d="m 105.536,119.573 1.076,0 0,-64.5603 -1.076,0 0,64.5603 z"
         inkscape:connector-curvature="0"
         id="path112" /></clipPath></defs><g
     transform="matrix(1.25,0,0,-1.25,0,300)"
     id="g10"><g
       id="g12"><g
         clip-path="url(#clipPath16)"
         id="g14"><g
           transform="translate(106.0728,184.1313)"
           id="g20"><path
             d="m 0,0 c -35.093,0 -63.642,-27.997 -64.536,-62.872 l 3.744,-0.098 c 0.119,4.731 0.787,9.325 1.926,13.728 l 3.625,-0.94 c 0.004,0.012 0.004,0.009 -0.004,-0.008 -1.188,-4.59 -1.822,-9.407 -1.822,-14.368 0,-5.51 0.781,-10.831 2.237,-15.866 l 3.596,1.042 c -1.358,4.702 -2.09,9.674 -2.09,14.824 0,12.377 4.221,23.767 11.296,32.818 l 2.953,-2.304 c -6.577,-8.415 -10.501,-19.007 -10.501,-30.514 0,-14.753 6.447,-27.999 16.675,-37.081 l 2.484,2.8 c -1.27,1.127 -2.47,2.326 -3.606,3.58 l 2.775,2.512 c 2.63,-2.917 5.674,-5.469 9.021,-7.552 l 1.98,3.175 c -10.863,6.772 -18.094,18.818 -18.094,32.566 0,21.174 17.168,38.339 38.341,38.339 21.175,0 38.343,-17.165 38.343,-38.339 0,-21.176 -17.168,-38.344 -38.343,-38.344 l 0,-26.217 c 35.655,0 64.559,28.908 64.559,64.561 C 64.559,-28.902 35.655,0 0,0"
             inkscape:connector-curvature="0"
             id="path22"
             style="fill:#f0552c;fill-opacity:1;fill-rule:nonzero;stroke:none" /></g><g
           id="g24"><g
             id="g26" /><g
             id="g32"><g
               clip-path="url(#clipPath28)"
               id="g34"><g
                 transform="translate(106.0728,161.6611)"
                 id="g36"><path
                   d="m 0,0 c -23.245,0 -42.088,-18.845 -42.088,-42.088 0,-15.086 7.939,-28.31 19.861,-35.741 l 1.98,3.176 c -10.863,6.771 -18.094,18.817 -18.094,32.565 0,21.174 17.168,38.339 38.341,38.339 21.175,0 38.343,-17.165 38.343,-38.339 0,-21.176 -17.168,-38.344 -38.343,-38.344 l 0,-3.744 c 23.243,0 42.086,18.842 42.086,42.088 C 42.086,-18.845 23.243,0 0,0"
                   inkscape:connector-curvature="0"
                   id="path38"
                   style="fill:#9ea0a3;fill-opacity:1;fill-rule:nonzero;stroke:none" /></g></g></g></g><g
           id="g40"><g
             id="g42" /><g
             id="g48"><g
               clip-path="url(#clipPath44)"
               id="g50"><g
                 transform="translate(106.0728,165.4043)"
                 id="g52"><path
                   d="m 0,0 c -25.31,0 -45.833,-20.521 -45.833,-45.831 0,-11.814 4.469,-22.575 11.805,-30.703 l 2.78,2.514 c -6.733,7.458 -10.84,17.342 -10.84,28.189 0,23.243 18.843,42.088 42.088,42.088 23.243,0 42.086,-18.845 42.086,-42.088 0,-23.246 -18.843,-42.088 -42.086,-42.088 l 0,-3.749 c 25.312,0 45.835,20.525 45.835,45.837 C 45.835,-20.521 25.312,0 0,0"
                   inkscape:connector-curvature="0"
                   id="path54"
                   style="fill:#bdbfc1;fill-opacity:1;fill-rule:nonzero;stroke:none" /></g></g></g></g><g
           id="g56"><g
             id="g58" /><g
             id="g64"><g
               clip-path="url(#clipPath60)"
               id="g66"><g
                 transform="translate(106.0728,176.6421)"
                 id="g68"><path
                   d="m 0,0 c -31.519,0 -57.067,-25.55 -57.067,-57.069 0,-5.51 0.781,-10.831 2.237,-15.866 l 3.596,1.042 c -1.358,4.702 -2.09,9.674 -2.09,14.824 0,29.447 23.875,53.323 53.324,53.323 29.452,0 53.323,-23.876 53.323,-53.323 0,-29.451 -23.871,-53.323 -53.323,-53.323 l 0,-3.748 c 31.517,0 57.069,25.55 57.069,57.071 C 57.069,-25.55 31.517,0 0,0"
                   inkscape:connector-curvature="0"
                   id="path70"
                   style="fill:#bdbfc1;fill-opacity:1;fill-rule:nonzero;stroke:none" /></g></g></g></g><g
           id="g72"><g
             id="g74" /><g
             id="g80"><g
               clip-path="url(#clipPath76)"
               id="g82"><g
                 transform="translate(106.0728,180.3843)"
                 id="g84"><path
                   d="m 0,0 c -28.296,0 -52.076,-19.324 -58.866,-45.495 l 3.625,-0.94 c 6.373,24.56 28.691,42.693 55.241,42.693 31.517,0 57.069,-25.55 57.069,-57.069 0,-31.522 -25.552,-57.071 -57.069,-57.071 l 0,-3.743 c 33.588,0 60.814,27.223 60.814,60.814 C 60.814,-27.225 33.588,0 0,0"
                   inkscape:connector-curvature="0"
                   id="path86"
                   style="fill:#9ea0a3;fill-opacity:1;fill-rule:nonzero;stroke:none" /></g></g></g></g><g
           id="g88"><g
             id="g90" /><g
             id="g96"><g
               clip-path="url(#clipPath92)"
               id="g98"><g
                 transform="translate(106.0728,184.1313)"
                 id="g100"><path
                   d="m 0,0 c -35.093,0 -63.642,-27.997 -64.536,-62.872 l 3.744,-0.098 c 0.843,32.853 27.739,59.223 60.792,59.223 33.588,0 60.814,-27.225 60.814,-60.811 0,-33.591 -27.226,-60.815 -60.814,-60.815 l 0,-3.746 c 35.655,0 64.559,28.908 64.559,64.561 C 64.559,-28.902 35.655,0 0,0"
                   inkscape:connector-curvature="0"
                   id="path102"
                   style="fill:#bdbfc1;fill-opacity:1;fill-rule:nonzero;stroke:none" /></g></g></g></g><path
           d="m 106.612,55.013 -1.076,0 0,64.561 1.076,0 0,-64.561 z"
           inkscape:connector-curvature="0"
           id="path104"
           style="fill:#f0552c;fill-opacity:1;fill-rule:nonzero;stroke:none" /><g
           id="g106"><g
             id="g108" /><g
             id="g114"><g
               clip-path="url(#clipPath110)"
               id="g116"><path
                 d="m 106.612,55.013 -1.076,0 0,64.561 1.076,0 0,-64.561 z"
                 inkscape:connector-curvature="0"
                 id="path118"
                 style="fill:#9ea0a3;fill-opacity:1;fill-rule:nonzero;stroke:none" /></g></g></g><g
           transform="translate(385.5649,71.5088)"
           id="g120"><path
             d="m 0,0 c -7.428,0.707 -12.376,0.707 -21.695,0.707 l -27.697,0 c -2.486,0 -11.362,-0.287 -13.255,-0.287 l 0,1.91 c 4.508,0.869 6.989,4.515 6.989,8.309 l 0,73.862 c 0,4.688 -2.774,6.859 -7.567,7.877 l 0,1.884 c 1.017,0 11.494,-0.287 13.979,-0.287 2.175,0 14.571,0.287 15.742,0.287 l 0,-1.884 c -4.676,-1.319 -7.718,-3.05 -7.718,-7.877 l 0,-78.363 25.048,0 c 9.33,0 12.978,3.937 16.48,11.647 L 2.192,17.341 0,0 z"
             inkscape:connector-curvature="0"
             id="path122"
             style="fill:#7c7976;fill-opacity:1;fill-rule:nonzero;stroke:none" /></g><g
           transform="translate(413.7852,72.2158)"
           id="g124"><path
             d="m 0,0 c -2.475,0 -12.821,-0.287 -13.983,-0.287 l 0,1.91 c 4.816,1.018 7.574,3.214 7.574,7.863 l 0,74.308 c 0,4.688 -2.758,6.859 -7.574,7.877 l 0,1.884 c 1.018,0 11.508,-0.287 13.983,-0.287 2.189,0 14.531,0.287 15.691,0.287 l 0,-1.884 C 11.028,90.352 7.976,88.621 7.976,83.794 l 0,-74.308 c 0,-4.801 3.052,-6.553 7.715,-7.863 l 0,-1.91 C 14.677,-0.287 2.189,0 0,0"
             inkscape:connector-curvature="0"
             id="path126"
             style="fill:#7c7976;fill-opacity:1;fill-rule:nonzero;stroke:none" /></g><g
           transform="translate(540.9033,72.2158)"
           id="g128"><path
             d="m 0,0 c -2.199,0 -10.795,-0.287 -11.964,-0.287 l 0,1.91 c 3.487,0.869 6.557,4.228 6.27,7.863 L -10.218,73.027 -40.513,0 -45.03,0 -79.71,73.452 -85.256,9.486 c -0.288,-3.635 2.327,-6.707 7.715,-7.863 l 0,-1.91 c -0.997,0 -8.875,0.287 -11.362,0.287 -2.177,0 -8.134,-0.287 -9.303,-0.287 l 0,1.91 c 3.487,0.869 7.433,4.228 7.719,7.863 l 6.263,72.129 c 0.439,5.248 -1.889,8.879 -5.68,10.056 l 0,1.884 c 2.176,0 5.534,-0.287 7.861,-0.287 2.192,0 6.438,0.287 8.781,0.287 l 34.953,-74.437 31.052,74.437 c 2.327,0 6.548,-0.287 8.718,-0.287 2.328,0 5.686,0.287 7.864,0.287 l 0,-1.884 C 5.548,90.494 3.505,86.863 3.789,81.615 L 8.748,9.486 c 0.29,-3.635 2.633,-6.845 6.263,-7.863 l 0,-1.91 C 13.995,-0.287 2.467,0 0,0"
             inkscape:connector-curvature="0"
             id="path130"
             style="fill:#7c7976;fill-opacity:1;fill-rule:nonzero;stroke:none" /></g><g
           transform="translate(605.563,147.4277)"
           id="g132"><path
             d="m 0,0 -16.754,-41.535 32.507,0 L 0,0 z m 35.91,-75.212 c -2.184,0 -12.869,-0.287 -15.056,-0.287 l 0,1.91 c 3.928,1.31 4.814,3.491 4.374,6.119 -0.141,1.155 -1.319,4.511 -1.759,5.529 l -5.927,15.266 -36.199,0 -5.523,-13.211 c -0.581,-1.309 -2.031,-6.429 -2.18,-7.156 -0.575,-3.056 1.166,-5.237 5.247,-6.547 l 0,-1.91 c -1.754,0 -7.871,0.287 -9.768,0.287 -1.885,0 -7.408,-0.287 -9.728,-0.287 l 0,1.91 c 5.39,1.883 7.001,4.661 9.031,9.766 L -2.289,8.583 c 1.317,3.213 3.35,10.634 3.35,10.634 l 8.185,0 c 0,0 1.905,-7.421 3.066,-10.634 l 27.1,-72.406 c 2.046,-5.392 4.08,-8.315 9.471,-9.766 l 0,-1.91 c -2.189,0 -10.783,0.287 -12.973,0.287"
             inkscape:connector-curvature="0"
             id="path134"
             style="fill:#7c7976;fill-opacity:1;fill-rule:nonzero;stroke:none" /></g><g
           transform="translate(724.4727,149.522)"
           id="g136"><path
             d="m 0,0 -1.886,0 c -2.05,8.307 -5.536,10.779 -11.8,10.779 l -20.256,0 0,-78.456 c 0,-3.779 4.231,-6.989 8.589,-8.006 l 0,-1.91 c -1.744,0 -14.637,0.287 -17.103,0.287 -2.18,0 -12.236,-0.287 -14.119,-0.287 l 0,1.91 c 4.201,0.869 8.29,4.227 8.29,8.006 l 0,78.456 -20.255,0 C -74.66,10.779 -78.161,8.45 -80.339,0 l -1.896,0 -0.299,16.834 c 4.957,-0.271 10.778,-0.873 40.367,-0.873 29.582,0 37.518,0.602 42.477,0.873 L 0,0 z"
             inkscape:connector-curvature="0"
             id="path138"
             style="fill:#7c7976;fill-opacity:1;fill-rule:nonzero;stroke:none" /></g><g
           transform="translate(800.1201,71.5088)"
           id="g140"><path
             d="m 0,0 c -7.43,0.707 -12.396,0.707 -21.714,0.707 l -29.925,0 c -2.472,0 -11.348,-0.287 -13.268,-0.287 l 0,1.91 c 4.52,0.869 7.008,4.515 7.008,8.309 l 0,73.862 c 0,3.646 -2.634,6.859 -7.008,7.877 l 0,1.884 57.477,0 c 1.604,0 4.076,0.315 5.675,1.171 l 1.89,0 -0.293,-15.707 -1.872,0 c -1.899,5.824 -6.276,9.325 -13.863,9.325 l -27.666,0 0,-36.856 24.62,0 c 4.076,0 6.403,1.325 8.29,4.831 l 1.906,0 c -0.148,-1.454 -0.148,-5.596 -0.148,-7.339 0,-1.601 0.148,-5.826 0.148,-7.424 l -1.906,0 c -1.887,3.355 -4.214,4.808 -8.29,4.808 l -24.62,0 0,-41.487 27.375,0 c 9.325,0 13.857,2.928 16.478,8.747 L 2.19,13.898 0,0 z"
             inkscape:connector-curvature="0"
             id="path142"
             style="fill:#7c7976;fill-opacity:1;fill-rule:nonzero;stroke:none" /></g><g
           transform="translate(306.0337,75.29)"
           id="g144"><path
             d="m 0,0 c -0.291,0.145 -2.475,-0.142 -6.563,-1.015 -3.785,-0.867 -14.127,-3.799 -24.041,-3.799 -31.912,0 -48.809,21.428 -48.809,48.378 0,27.12 18.788,48.374 48.809,48.374 8.896,0 18.805,-2.9 22.581,-3.776 4.086,-0.884 6.12,-1.014 6.577,-1.014 l 0.867,-15.161 -1.896,0 c -2.043,4.086 -5.26,7.283 -8.89,9.475 -5.095,3.055 -12.252,5.976 -19.239,5.976 -22.437,0 -31.866,-20.112 -31.866,-43.874 0,-19.374 8.848,-43.872 31.866,-43.872 8.745,0 15.594,2.944 20.697,6.001 3.642,2.185 6.843,5.396 8.892,9.471 l 1.886,0 L 0,0 z"
             inkscape:connector-curvature="0"
             id="path146"
             style="fill:#7c7976;fill-opacity:1;fill-rule:nonzero;stroke:none" /></g><g
           transform="translate(385.5649,71.5088)"
           id="g148"><path
             d="m 0,0 c -7.428,0.707 -12.376,0.707 -21.695,0.707 l -27.697,0 c -2.486,0 -11.362,-0.287 -13.255,-0.287 l 0,1.91 c 4.508,0.869 6.989,4.515 6.989,8.309 l 0,73.862 c 0,4.688 -2.774,6.859 -7.567,7.877 l 0,1.884 c 1.017,0 11.494,-0.287 13.979,-0.287 2.175,0 14.571,0.287 15.742,0.287 l 0,-1.884 c -4.676,-1.319 -7.718,-3.05 -7.718,-7.877 l 0,-78.363 25.048,0 c 9.33,0 12.978,3.937 16.48,11.647 L 2.192,17.341 0,0 z"
             inkscape:connector-curvature="0"
             id="path150"
             style="fill:#7c7976;fill-opacity:1;fill-rule:nonzero;stroke:none" /></g><g
           transform="translate(413.7852,72.2158)"
           id="g152"><path
             d="m 0,0 c -2.475,0 -12.821,-0.287 -13.983,-0.287 l 0,1.91 c 4.816,1.018 7.574,3.214 7.574,7.863 l 0,74.308 c 0,4.688 -2.758,6.859 -7.574,7.877 l 0,1.884 c 1.018,0 11.508,-0.287 13.983,-0.287 2.189,0 14.531,0.287 15.691,0.287 l 0,-1.884 C 11.028,90.352 7.976,88.621 7.976,83.794 l 0,-74.308 c 0,-4.801 3.052,-6.553 7.715,-7.863 l 0,-1.91 C 14.677,-0.287 2.189,0 0,0"
             inkscape:connector-curvature="0"
             id="path154"
             style="fill:#7c7976;fill-opacity:1;fill-rule:nonzero;stroke:none" /></g><g
           transform="translate(540.9033,72.2158)"
           id="g156"><path
             d="m 0,0 c -2.199,0 -10.795,-0.287 -11.964,-0.287 l 0,1.91 c 3.487,0.869 6.557,4.228 6.27,7.863 L -10.218,73.027 -40.513,0 -45.03,0 -79.71,73.452 -85.256,9.486 c -0.288,-3.635 2.327,-6.707 7.715,-7.863 l 0,-1.91 c -0.997,0 -8.875,0.287 -11.362,0.287 -2.177,0 -8.134,-0.287 -9.303,-0.287 l 0,1.91 c 3.487,0.869 7.433,4.228 7.719,7.863 l 6.263,72.129 c 0.439,5.248 -1.889,8.879 -5.68,10.056 l 0,1.884 c 2.176,0 5.534,-0.287 7.861,-0.287 2.192,0 6.438,0.287 8.781,0.287 l 34.953,-74.437 31.052,74.437 c 2.327,0 6.548,-0.287 8.718,-0.287 2.328,0 5.686,0.287 7.864,0.287 l 0,-1.884 C 5.548,90.494 3.505,86.863 3.789,81.615 L 8.748,9.486 c 0.29,-3.635 2.633,-6.845 6.263,-7.863 l 0,-1.91 C 13.995,-0.287 2.467,0 0,0"
             inkscape:connector-curvature="0"
             id="path158"
             style="fill:#7c7976;fill-opacity:1;fill-rule:nonzero;stroke:none" /></g><g
           transform="translate(605.563,147.4277)"
           id="g160"><path
             d="m 0,0 -16.754,-41.535 32.507,0 L 0,0 z m 35.91,-75.212 c -2.184,0 -12.869,-0.287 -15.056,-0.287 l 0,1.91 c 3.928,1.31 4.814,3.491 4.374,6.119 -0.141,1.155 -1.319,4.511 -1.759,5.529 l -5.927,15.266 -36.199,0 -5.523,-13.211 c -0.581,-1.309 -2.031,-6.429 -2.18,-7.156 -0.575,-3.056 1.166,-5.237 5.247,-6.547 l 0,-1.91 c -1.754,0 -7.871,0.287 -9.768,0.287 -1.885,0 -7.408,-0.287 -9.728,-0.287 l 0,1.91 c 5.39,1.883 7.001,4.661 9.031,9.766 L -2.289,8.583 c 1.317,3.213 3.35,10.634 3.35,10.634 l 8.185,0 c 0,0 1.905,-7.421 3.066,-10.634 l 27.1,-72.406 c 2.046,-5.392 4.08,-8.315 9.471,-9.766 l 0,-1.91 c -2.189,0 -10.783,0.287 -12.973,0.287"
             inkscape:connector-curvature="0"
             id="path162"
             style="fill:#7c7976;fill-opacity:1;fill-rule:nonzero;stroke:none" /></g><g
           transform="translate(724.4727,149.522)"
           id="g164"><path
             d="m 0,0 -1.886,0 c -2.05,8.307 -5.536,10.779 -11.8,10.779 l -20.256,0 0,-78.456 c 0,-3.779 4.231,-6.989 8.589,-8.006 l 0,-1.91 c -1.744,0 -14.637,0.287 -17.103,0.287 -2.18,0 -12.236,-0.287 -14.119,-0.287 l 0,1.91 c 4.201,0.869 8.29,4.227 8.29,8.006 l 0,78.456 -20.255,0 C -74.66,10.779 -78.161,8.45 -80.339,0 l -1.896,0 -0.299,16.834 c 4.957,-0.271 10.778,-0.873 40.367,-0.873 29.582,0 37.518,0.602 42.477,0.873 L 0,0 z"
             inkscape:connector-curvature="0"
             id="path166"
             style="fill:#7c7976;fill-opacity:1;fill-rule:nonzero;stroke:none" /></g><g
           transform="translate(800.1201,71.5088)"
           id="g168"><path
             d="m 0,0 c -7.43,0.707 -12.396,0.707 -21.714,0.707 l -29.925,0 c -2.472,0 -11.348,-0.287 -13.268,-0.287 l 0,1.91 c 4.52,0.869 7.008,4.515 7.008,8.309 l 0,73.862 c 0,3.646 -2.634,6.859 -7.008,7.877 l 0,1.884 57.477,0 c 1.604,0 4.076,0.315 5.675,1.171 l 1.89,0 -0.293,-15.707 -1.872,0 c -1.899,5.824 -6.276,9.325 -13.863,9.325 l -27.666,0 0,-36.856 24.62,0 c 4.076,0 6.403,1.325 8.29,4.831 l 1.906,0 c -0.148,-1.454 -0.148,-5.596 -0.148,-7.339 0,-1.601 0.148,-5.826 0.148,-7.424 l -1.906,0 c -1.887,3.355 -4.214,4.808 -8.29,4.808 l -24.62,0 0,-41.487 27.375,0 c 9.325,0 13.857,2.928 16.478,8.747 L 2.19,13.898 0,0 z"
             inkscape:connector-curvature="0"
             id="path170"
             style="fill:#7c7976;fill-opacity:1;fill-rule:nonzero;stroke:none" /></g><g
           transform="translate(306.0337,75.29)"
           id="g172"><path
             d="m 0,0 c -0.291,0.145 -2.475,-0.142 -6.563,-1.015 -3.785,-0.867 -14.127,-3.799 -24.041,-3.799 -31.912,0 -48.809,21.428 -48.809,48.378 0,27.12 18.788,48.374 48.809,48.374 8.896,0 18.805,-2.9 22.581,-3.776 4.086,-0.884 6.12,-1.014 6.577,-1.014 l 0.867,-15.161 -1.896,0 c -2.043,4.086 -5.26,7.283 -8.89,9.475 -5.095,3.055 -12.252,5.976 -19.239,5.976 -22.437,0 -31.866,-20.112 -31.866,-43.874 0,-19.374 8.848,-43.872 31.866,-43.872 8.745,0 15.594,2.944 20.697,6.001 3.642,2.185 6.843,5.396 8.892,9.471 l 1.886,0 L 0,0 z"
             inkscape:connector-curvature="0"
             id="path174"
             style="fill:#7c7976;fill-opacity:1;fill-rule:nonzero;stroke:none" /></g><g
           transform="translate(903.2222,161.5527)"
           id="g176"><path
             d="m 0,0 c -3.208,0 -8.308,-0.274 -11.366,-1.162 l 0,-42.557 c 2.489,-0.432 7.719,-0.867 12.235,-0.867 16.756,0 21.148,10.206 21.148,22.001 C 22.017,-8.877 14.58,0 0,0 m 3.358,-49.837 c -5.244,0 -10.779,0.156 -14.724,0.731 l 0,-30.592 c 0,-3.779 2.776,-6.993 7.152,-8.007 l 0,-1.899 c -1.758,0 -10.943,0.287 -13.411,0.287 -2.192,0 -13.065,-0.287 -14.952,-0.287 l 0,1.899 c 4.234,0.86 6.848,4.228 6.848,8.007 l 0,74.178 c 0,3.648 -2.474,6.836 -6.988,7.864 l 0,1.881 c 1.74,0 13.041,-0.276 15.53,-0.276 4.224,0 16.172,0.872 20.977,0.872 16.61,0 32.637,-8.022 32.637,-27.552 0,-16.154 -13.554,-27.106 -33.069,-27.106"
             inkscape:connector-curvature="0"
             id="path178"
             style="fill:#7c7976;fill-opacity:1;fill-rule:nonzero;stroke:none" /></g><g
           transform="translate(997.2607,162.584)"
           id="g180"><path
             d="m 0,0 c -23.042,0 -29.225,-22.163 -29.225,-44.004 0,-21.875 6.183,-43.432 29.225,-43.432 23.017,0 29.065,21.557 29.065,43.432 C 29.065,-22.163 23.017,0 0,0 m 0,-92.088 c -28.278,0 -46.2,21.848 -46.2,48.084 0,26.073 17.922,48.649 46.2,48.649 28.111,0 46.033,-22.433 46.033,-48.649 0,-26.083 -17.922,-48.084 -46.033,-48.084"
             inkscape:connector-curvature="0"
             id="path182"
             style="fill:#7c7976;fill-opacity:1;fill-rule:nonzero;stroke:none" /></g><g
           transform="translate(1332.7832,150.1992)"
           id="g184"><path
             d="m 0,0 -21.856,-34.252 0,-34.093 c 0,-3.778 2.492,-6.993 6.987,-8.007 l 0,-1.899 c -1.885,0 -10.93,0.287 -13.39,0.287 -2.197,0 -10.791,-0.287 -12.985,-0.287 l 0,1.899 c 4.518,0.861 7.149,4.229 7.149,8.007 l 0,33.516 -24.032,37.592 c -3.224,4.955 -7.591,9.187 -11.234,10.934 l 0,1.882 c 2.174,0 10.347,-0.277 12.672,-0.277 2.194,0 10.342,0.277 12.671,0.277 l 0,-1.882 c -1.6,-0.299 -2.91,-2.203 -2.91,-3.505 0,-1.167 0.156,-3.344 1.604,-5.671 L -25.055,-27.531 -4.82,4.074 c 1.897,3.062 2.354,4.951 2.354,6.691 0,1.474 -1.621,2.633 -3.656,2.932 l 0,1.882 c 1.889,0 8.31,-0.277 10.195,-0.277 1.909,0 8.319,0.277 10.209,0.277 l 0,-1.882 C 8.744,11.08 4.238,6.702 0,0"
             inkscape:connector-curvature="0"
             id="path186"
             style="fill:#7c7976;fill-opacity:1;fill-rule:nonzero;stroke:none" /></g><g
           transform="translate(1116.8203,71.5088)"
           id="g188"><path
             d="m 0,0 c -7.437,0.707 -12.38,0.707 -21.712,0.707 l -27.678,0 c -2.471,0 -11.364,-0.287 -13.256,-0.287 l 0,1.919 c 4.509,0.86 6.987,4.515 6.987,8.307 l 0,73.862 c 0,4.681 -2.776,6.852 -7.578,7.88 l 0,1.881 c 1.025,0 11.517,-0.294 13.995,-0.294 2.177,0 14.57,0.294 15.732,0.294 l 0,-1.881 c -4.663,-1.313 -7.734,-3.06 -7.734,-7.88 l 0,-78.365 25.061,0 c 9.334,0 12.985,3.94 16.485,11.642 L 2.188,17.341 0,0 z"
             inkscape:connector-curvature="0"
             id="path190"
             style="fill:#7c7976;fill-opacity:1;fill-rule:nonzero;stroke:none" /></g><g
           transform="translate(1145.0391,72.2158)"
           id="g192"><path
             d="m 0,0 c -2.478,0 -12.82,-0.287 -13.983,-0.287 l 0,1.919 c 4.819,1.014 7.579,3.21 7.579,7.854 l 0,74.315 c 0,4.681 -2.76,6.852 -7.579,7.88 l 0,1.881 c 1.015,0 11.505,-0.294 13.983,-0.294 2.19,0 14.533,0.294 15.688,0.294 l 0,-1.881 C 11.02,90.368 7.951,88.621 7.951,83.801 l 0,-74.315 c 0,-4.79 3.069,-6.553 7.737,-7.854 l 0,-1.919 C 14.679,-0.287 2.19,0 0,0"
             inkscape:connector-curvature="0"
             id="path194"
             style="fill:#7c7976;fill-opacity:1;fill-rule:nonzero;stroke:none" /></g><g
           transform="translate(1251.9141,75.0762)"
           id="g196"><path
             d="m 0,0 c -0.281,0.146 -2.47,-0.141 -6.563,-1.017 -3.786,-0.869 -14.13,-3.789 -24.044,-3.789 -31.904,0 -48.805,21.406 -48.805,48.374 0,27.118 18.803,48.39 48.805,48.39 8.894,0 18.808,-2.93 22.589,-3.798 4.073,-0.872 6.135,-1.018 6.564,-1.018 l 0.872,-15.157 -1.888,0 c -2.032,4.087 -5.25,7.28 -8.892,9.479 -5.103,3.049 -12.235,5.973 -19.245,5.973 -22.43,0 -31.861,-20.111 -31.861,-43.869 0,-19.37 8.85,-43.878 31.861,-43.878 8.747,0 15.603,2.944 20.71,5.994 3.641,2.2 6.845,5.387 8.888,9.473 l 1.891,0 L 0,0 z"
             inkscape:connector-curvature="0"
             id="path198"
             style="fill:#7c7976;fill-opacity:1;fill-rule:nonzero;stroke:none" /></g><g
           transform="translate(903.2222,161.5527)"
           id="g200"><path
             d="m 0,0 c -3.208,0 -8.308,-0.274 -11.366,-1.162 l 0,-42.557 c 2.489,-0.432 7.719,-0.867 12.235,-0.867 16.756,0 21.148,10.206 21.148,22.001 C 22.017,-8.877 14.58,0 0,0 m 3.358,-49.837 c -5.244,0 -10.779,0.156 -14.724,0.731 l 0,-30.592 c 0,-3.779 2.776,-6.993 7.152,-8.007 l 0,-1.899 c -1.758,0 -10.943,0.287 -13.411,0.287 -2.192,0 -13.065,-0.287 -14.952,-0.287 l 0,1.899 c 4.234,0.86 6.848,4.228 6.848,8.007 l 0,74.178 c 0,3.648 -2.474,6.836 -6.988,7.864 l 0,1.881 c 1.74,0 13.041,-0.276 15.53,-0.276 4.224,0 16.172,0.872 20.977,0.872 16.61,0 32.637,-8.022 32.637,-27.552 0,-16.154 -13.554,-27.106 -33.069,-27.106"
             inkscape:connector-curvature="0"
             id="path202"
             style="fill:#7c7976;fill-opacity:1;fill-rule:nonzero;stroke:none" /></g><g
           transform="translate(997.2607,162.584)"
           id="g204"><path
             d="m 0,0 c -23.042,0 -29.225,-22.163 -29.225,-44.004 0,-21.875 6.183,-43.432 29.225,-43.432 23.017,0 29.065,21.557 29.065,43.432 C 29.065,-22.163 23.017,0 0,0 m 0,-92.088 c -28.278,0 -46.2,21.848 -46.2,48.084 0,26.073 17.922,48.649 46.2,48.649 28.111,0 46.033,-22.433 46.033,-48.649 0,-26.083 -17.922,-48.084 -46.033,-48.084"
             inkscape:connector-curvature="0"
             id="path206"
             style="fill:#7c7976;fill-opacity:1;fill-rule:nonzero;stroke:none" /></g><g
           transform="translate(1332.7832,150.1992)"
           id="g208"><path
             d="m 0,0 -21.856,-34.252 0,-34.093 c 0,-3.778 2.492,-6.993 6.987,-8.007 l 0,-1.899 c -1.885,0 -10.93,0.287 -13.39,0.287 -2.197,0 -10.791,-0.287 -12.985,-0.287 l 0,1.899 c 4.518,0.861 7.149,4.229 7.149,8.007 l 0,33.516 -24.032,37.592 c -3.224,4.955 -7.591,9.187 -11.234,10.934 l 0,1.882 c 2.174,0 10.347,-0.277 12.672,-0.277 2.194,0 10.342,0.277 12.671,0.277 l 0,-1.882 c -1.6,-0.299 -2.91,-2.203 -2.91,-3.505 0,-1.167 0.156,-3.344 1.604,-5.671 L -25.055,-27.531 -4.82,4.074 c 1.897,3.062 2.354,4.951 2.354,6.691 0,1.474 -1.621,2.633 -3.656,2.932 l 0,1.882 c 1.889,0 8.31,-0.277 10.195,-0.277 1.909,0 8.319,0.277 10.209,0.277 l 0,-1.882 C 8.744,11.08 4.238,6.702 0,0"
             inkscape:connector-curvature="0"
             id="path210"
             style="fill:#7c7976;fill-opacity:1;fill-rule:nonzero;stroke:none" /></g><g
           transform="translate(1116.8203,71.5088)"
           id="g212"><path
             d="m 0,0 c -7.437,0.707 -12.38,0.707 -21.712,0.707 l -27.678,0 c -2.471,0 -11.364,-0.287 -13.256,-0.287 l 0,1.919 c 4.509,0.86 6.987,4.515 6.987,8.307 l 0,73.862 c 0,4.681 -2.776,6.852 -7.578,7.88 l 0,1.881 c 1.025,0 11.517,-0.294 13.995,-0.294 2.177,0 14.57,0.294 15.732,0.294 l 0,-1.881 c -4.663,-1.313 -7.734,-3.06 -7.734,-7.88 l 0,-78.365 25.061,0 c 9.334,0 12.985,3.94 16.485,11.642 L 2.188,17.341 0,0 z"
             inkscape:connector-curvature="0"
             id="path214"
             style="fill:#7c7976;fill-opacity:1;fill-rule:nonzero;stroke:none" /></g><g
           transform="translate(1145.0391,72.2158)"
           id="g216"><path
             d="m 0,0 c -2.478,0 -12.82,-0.287 -13.983,-0.287 l 0,1.919 c 4.819,1.014 7.579,3.21 7.579,7.854 l 0,74.315 c 0,4.681 -2.76,6.852 -7.579,7.88 l 0,1.881 c 1.015,0 11.505,-0.294 13.983,-0.294 2.19,0 14.533,0.294 15.688,0.294 l 0,-1.881 C 11.02,90.368 7.951,88.621 7.951,83.801 l 0,-74.315 c 0,-4.79 3.069,-6.553 7.737,-7.854 l 0,-1.919 C 14.679,-0.287 2.19,0 0,0"
             inkscape:connector-curvature="0"
             id="path218"
             style="fill:#7c7976;fill-opacity:1;fill-rule:nonzero;stroke:none" /></g><g
           transform="translate(1251.9141,75.0762)"
           id="g220"><path
             d="m 0,0 c -0.281,0.146 -2.47,-0.141 -6.563,-1.017 -3.786,-0.869 -14.13,-3.789 -24.044,-3.789 -31.904,0 -48.805,21.406 -48.805,48.374 0,27.118 18.803,48.39 48.805,48.39 8.894,0 18.808,-2.93 22.589,-3.798 4.073,-0.872 6.135,-1.018 6.564,-1.018 l 0.872,-15.157 -1.888,0 c -2.032,4.087 -5.25,7.28 -8.892,9.479 -5.103,3.049 -12.235,5.973 -19.245,5.973 -22.43,0 -31.861,-20.111 -31.861,-43.869 0,-19.37 8.85,-43.878 31.861,-43.878 8.747,0 15.603,2.944 20.71,5.994 3.641,2.2 6.845,5.387 8.888,9.473 l 1.891,0 L 0,0 z"
             inkscape:connector-curvature="0"
             id="path222"
             style="fill:#7c7976;fill-opacity:1;fill-rule:nonzero;stroke:none" /></g><g
           transform="translate(1527.959,155.605)"
           id="g224"><path
             d="m 0,0 0,-85.526 -1.488,0 c 0,0 -7.871,6.244 -11.508,10.645 l -56.25,67.009 0,-66.462 c 0,-4.642 2.758,-6.827 7.577,-7.853 l 0,-1.881 c -1.027,0 -8.307,0.271 -10.759,0.271 -2.214,0 -8.556,-0.271 -9.712,-0.271 l 0,1.881 c 4.656,1.302 7.725,3.058 7.725,7.853 l 0,72.147 c 0,5.259 -1.898,8.887 -5.682,10.07 l 0,1.878 c 2.176,0 3.284,-0.287 5.603,-0.287 2.199,0 6.084,0.287 8.415,0.287 l 60.965,-69.714 0,59.953 c 0,4.666 -2.789,6.849 -7.591,7.883 l 0,1.878 c 1.01,0 8.319,-0.287 10.779,-0.287 2.195,0 8.494,0.287 9.637,0.287 l 0,-1.878 C 3.057,6.562 0,4.819 0,0"
             inkscape:connector-curvature="0"
             id="path226"
             style="fill:#7c7976;fill-opacity:1;fill-rule:nonzero;stroke:none" /></g><g
           transform="translate(2022.668,155.9028)"
           id="g228"><path
             d="m 0,0 -34.224,-85.824 -6.124,0 -32.349,86.402 c -1.915,4.959 -3.647,5.824 -7.438,7.007 l 0,1.878 c 2.191,0 10.638,-0.287 12.985,-0.287 2.173,0 13.067,0.287 15.39,0.287 l 0,-1.878 C -54.23,6.991 -57.754,5.1 -57.754,2.61 c 0,-1.287 0.899,-3.49 1.473,-5.094 l 23.949,-63.944 26.024,62.338 c 1.171,2.927 0.869,5.989 0.734,6.987 -0.595,2.927 -1.625,3.943 -4.814,4.688 l 0,1.878 c 2.032,0 6.007,-0.287 8.201,-0.287 2.053,0 8.172,0.287 10.357,0.287 l 0,-1.878 C 3.926,6.551 1.894,4.657 0,0"
             inkscape:connector-curvature="0"
             id="path230"
             style="fill:#7c7976;fill-opacity:1;fill-rule:nonzero;stroke:none" /></g><g
           transform="translate(1416.0908,71.8076)"
           id="g232"><path
             d="m 0,0 c -2.471,0 -12.814,-0.271 -13.995,-0.271 l 0,1.881 c 4.819,1.027 7.58,3.244 7.58,7.853 l 0,74.334 c 0,4.666 -2.761,6.849 -7.58,7.883 l 0,1.878 c 1.027,0 11.524,-0.287 13.995,-0.287 2.182,0 14.51,0.287 15.697,0.287 l 0,-1.878 c -4.675,-1.321 -7.74,-3.063 -7.74,-7.883 l 0,-74.334 c 0,-4.764 3.065,-6.52 7.74,-7.853 l 0,-1.881 C 14.655,-0.271 2.182,0 0,0"
             inkscape:connector-curvature="0"
             id="path234"
             style="fill:#7c7976;fill-opacity:1;fill-rule:nonzero;stroke:none" /></g><g
           transform="translate(1563.2285,71.8076)"
           id="g236"><path
             d="m 0,0 c -2.49,0 -12.852,-0.271 -13.997,-0.271 l 0,1.881 c 4.801,1.027 7.579,3.244 7.579,7.853 l 0,74.334 c 0,4.666 -2.778,6.849 -7.579,7.883 l 0,1.878 c 1.01,0 11.507,-0.287 13.997,-0.287 2.164,0 14.501,0.287 15.676,0.287 l 0,-1.878 C 11.021,90.359 7.963,88.617 7.963,83.797 l 0,-74.334 c 0,-4.764 3.058,-6.52 7.713,-7.853 l 0,-1.881 C 14.652,-0.271 2.164,0 0,0"
             inkscape:connector-curvature="0"
             id="path238"
             style="fill:#7c7976;fill-opacity:1;fill-rule:nonzero;stroke:none" /></g><g
           transform="translate(1701.0049,71.8076)"
           id="g240"><path
             d="m 0,0 c -2.489,0 -12.847,-0.271 -14.013,-0.271 l 0,1.881 c 4.819,1.027 7.583,3.244 7.583,7.853 l 0,74.334 c 0,4.666 -2.764,6.849 -7.583,7.883 l 0,1.878 c 1.027,0 11.524,-0.287 14.013,-0.287 2.173,0 14.496,0.287 15.669,0.287 l 0,-1.878 C 11.009,90.359 7.947,88.617 7.947,83.797 l 0,-74.334 c 0,-4.764 3.062,-6.52 7.722,-7.853 l 0,-1.881 C 14.644,-0.271 2.173,0 0,0"
             inkscape:connector-curvature="0"
             id="path242"
             style="fill:#7c7976;fill-opacity:1;fill-rule:nonzero;stroke:none" /></g><g
           transform="translate(1915.2773,71.8076)"
           id="g244"><path
             d="m 0,0 c -2.452,0 -12.834,-0.271 -13.979,-0.271 l 0,1.881 c 4.803,1.027 7.582,3.244 7.582,7.853 l 0,74.334 c 0,4.666 -2.779,6.849 -7.582,7.883 l 0,1.878 c 0.999,0 11.527,-0.287 13.979,-0.287 2.214,0 14.539,0.287 15.676,0.287 l 0,-1.878 C 11.039,90.359 7.971,88.617 7.971,83.797 l 0,-74.334 c 0,-4.764 3.068,-6.52 7.705,-7.853 l 0,-1.881 C 14.673,-0.271 2.214,0 0,0"
             inkscape:connector-curvature="0"
             id="path246"
             style="fill:#7c7976;fill-opacity:1;fill-rule:nonzero;stroke:none" /></g><g
           transform="translate(1673.0889,149.2632)"
           id="g248"><path
             d="m 0,0 -1.897,0 c -2.03,8.308 -5.518,10.782 -11.797,10.782 l -20.254,0 0,-78.473 c 0,-3.764 4.245,-7.006 8.61,-8.008 l 0,-1.874 c -1.757,0 -14.642,0.263 -17.112,0.263 -2.183,0 -12.236,-0.263 -14.129,-0.263 l 0,1.874 c 4.209,0.88 8.289,4.244 8.289,8.008 l 0,78.473 -20.254,0 c -6.111,0 -9.61,-2.336 -11.8,-10.782 l -1.876,0 -0.314,16.832 c 4.95,-0.288 10.805,-0.867 40.365,-0.867 29.584,0 37.515,0.579 42.488,0.867 L 0,0 z"
             inkscape:connector-curvature="0"
             id="path250"
             style="fill:#7c7976;fill-opacity:1;fill-rule:nonzero;stroke:none" /></g><g
           transform="translate(1889.1094,149.2632)"
           id="g252"><path
             d="M 0,0 -1.891,0 C -3.913,8.308 -7.42,10.782 -13.713,10.782 l -20.24,0 0,-78.473 c 0,-3.764 4.226,-7.006 8.611,-8.008 l 0,-1.874 c -1.755,0 -14.641,0.263 -17.124,0.263 -2.172,0 -12.241,-0.263 -14.125,-0.263 l 0,1.874 c 4.216,0.88 8.303,4.244 8.303,8.008 l 0,78.473 -20.25,0 c -6.121,0 -9.615,-2.336 -11.829,-10.782 l -1.872,0 -0.294,16.832 c 4.955,-0.288 10.781,-0.867 40.383,-0.867 29.563,0 37.492,0.579 42.45,0.867 L 0,0 z"
             inkscape:connector-curvature="0"
             id="path254"
             style="fill:#7c7976;fill-opacity:1;fill-rule:nonzero;stroke:none" /></g><g
           transform="translate(1766.834,147.019)"
           id="g256"><path
             d="m 0,0 -16.762,-41.531 32.503,0 L 0,0 z m 35.91,-75.211 c -2.198,0 -12.882,-0.271 -15.056,-0.271 l 0,1.881 c 3.927,1.333 4.802,3.518 4.35,6.123 -0.139,1.183 -1.304,4.515 -1.729,5.549 l -5.945,15.262 -36.207,0 -5.524,-13.204 c -0.574,-1.336 -2.028,-6.424 -2.176,-7.178 -0.573,-3.034 1.187,-5.219 5.248,-6.552 l 0,-1.881 c -1.749,0 -7.855,0.271 -9.767,0.271 -1.878,0 -7.397,-0.271 -9.719,-0.271 l 0,1.881 c 5.381,1.906 6.985,4.668 9.021,9.792 L -2.309,8.586 c 1.317,3.209 3.376,10.641 3.376,10.641 l 8.173,0 c 0,0 1.894,-7.432 3.041,-10.641 l 27.127,-72.395 c 2.03,-5.401 4.062,-8.314 9.446,-9.792 l 0,-1.881 c -2.169,0 -10.759,0.271 -12.944,0.271"
             inkscape:connector-curvature="0"
             id="path258"
             style="fill:#7c7976;fill-opacity:1;fill-rule:nonzero;stroke:none" /></g><g
           transform="translate(2104.623,71.167)"
           id="g260"><path
             d="m 0,0 c -7.402,0.735 -12.372,0.735 -21.713,0.735 l -29.929,0 c -2.489,0 -11.373,-0.305 -13.254,-0.305 l 0,1.904 c 4.521,0.885 7.002,4.523 7.002,8.315 l 0,73.86 c 0,3.654 -2.628,6.857 -7.002,7.886 l 0,1.88 57.494,0 c 1.579,0 4.07,0.289 5.672,1.165 l 1.879,0 -0.301,-15.707 -1.877,0 c -1.917,5.825 -6.27,9.31 -13.849,9.31 l -27.702,0 0,-36.828 24.656,0 c 4.06,0 6.4,1.302 8.276,4.806 l 1.913,0 c -0.144,-1.455 -0.144,-5.58 -0.144,-7.338 0,-1.589 0.144,-5.805 0.144,-7.416 l -1.913,0 c -1.876,3.367 -4.216,4.809 -8.276,4.809 l -24.656,0 0,-41.493 27.414,0 c 9.323,0 13.842,2.913 16.464,8.753 L 2.197,13.891 0,0 z"
             inkscape:connector-curvature="0"
             id="path262"
             style="fill:#7c7976;fill-opacity:1;fill-rule:nonzero;stroke:none" /></g><g
           transform="translate(1527.959,155.605)"
           id="g264"><path
             d="m 0,0 0,-85.526 -1.488,0 c 0,0 -7.871,6.244 -11.508,10.645 l -56.25,67.009 0,-66.462 c 0,-4.642 2.758,-6.827 7.577,-7.853 l 0,-1.881 c -1.027,0 -8.307,0.271 -10.759,0.271 -2.214,0 -8.556,-0.271 -9.712,-0.271 l 0,1.881 c 4.656,1.302 7.725,3.058 7.725,7.853 l 0,72.147 c 0,5.259 -1.898,8.887 -5.682,10.07 l 0,1.878 c 2.176,0 3.284,-0.287 5.603,-0.287 2.199,0 6.084,0.287 8.415,0.287 l 60.965,-69.714 0,59.953 c 0,4.666 -2.789,6.849 -7.591,7.883 l 0,1.878 c 1.01,0 8.319,-0.287 10.779,-0.287 2.195,0 8.494,0.287 9.637,0.287 l 0,-1.878 C 3.057,6.562 0,4.819 0,0"
             inkscape:connector-curvature="0"
             id="path266"
             style="fill:#7c7976;fill-opacity:1;fill-rule:nonzero;stroke:none" /></g><g
           transform="translate(2022.668,155.9028)"
           id="g268"><path
             d="m 0,0 -34.224,-85.824 -6.124,0 -32.349,86.402 c -1.915,4.959 -3.647,5.824 -7.438,7.007 l 0,1.878 c 2.191,0 10.638,-0.287 12.985,-0.287 2.173,0 13.067,0.287 15.39,0.287 l 0,-1.878 C -54.23,6.991 -57.754,5.1 -57.754,2.61 c 0,-1.287 0.899,-3.49 1.473,-5.094 l 23.949,-63.944 26.024,62.338 c 1.171,2.927 0.869,5.989 0.734,6.987 -0.595,2.927 -1.625,3.943 -4.814,4.688 l 0,1.878 c 2.032,0 6.007,-0.287 8.201,-0.287 2.053,0 8.172,0.287 10.357,0.287 l 0,-1.878 C 3.926,6.551 1.894,4.657 0,0"
             inkscape:connector-curvature="0"
             id="path270"
             style="fill:#7c7976;fill-opacity:1;fill-rule:nonzero;stroke:none" /></g><g
           transform="translate(1416.0908,71.8076)"
           id="g272"><path
             d="m 0,0 c -2.471,0 -12.814,-0.271 -13.995,-0.271 l 0,1.881 c 4.819,1.027 7.58,3.244 7.58,7.853 l 0,74.334 c 0,4.666 -2.761,6.849 -7.58,7.883 l 0,1.878 c 1.027,0 11.524,-0.287 13.995,-0.287 2.182,0 14.51,0.287 15.697,0.287 l 0,-1.878 c -4.675,-1.321 -7.74,-3.063 -7.74,-7.883 l 0,-74.334 c 0,-4.764 3.065,-6.52 7.74,-7.853 l 0,-1.881 C 14.655,-0.271 2.182,0 0,0"
             inkscape:connector-curvature="0"
             id="path274"
             style="fill:#7c7976;fill-opacity:1;fill-rule:nonzero;stroke:none" /></g><g
           transform="translate(1563.2285,71.8076)"
           id="g276"><path
             d="m 0,0 c -2.49,0 -12.852,-0.271 -13.997,-0.271 l 0,1.881 c 4.801,1.027 7.579,3.244 7.579,7.853 l 0,74.334 c 0,4.666 -2.778,6.849 -7.579,7.883 l 0,1.878 c 1.01,0 11.507,-0.287 13.997,-0.287 2.164,0 14.501,0.287 15.676,0.287 l 0,-1.878 C 11.021,90.359 7.963,88.617 7.963,83.797 l 0,-74.334 c 0,-4.764 3.058,-6.52 7.713,-7.853 l 0,-1.881 C 14.652,-0.271 2.164,0 0,0"
             inkscape:connector-curvature="0"
             id="path278"
             style="fill:#7c7976;fill-opacity:1;fill-rule:nonzero;stroke:none" /></g><g
           transform="translate(1701.0049,71.8076)"
           id="g280"><path
             d="m 0,0 c -2.489,0 -12.847,-0.271 -14.013,-0.271 l 0,1.881 c 4.819,1.027 7.583,3.244 7.583,7.853 l 0,74.334 c 0,4.666 -2.764,6.849 -7.583,7.883 l 0,1.878 c 1.027,0 11.524,-0.287 14.013,-0.287 2.173,0 14.496,0.287 15.669,0.287 l 0,-1.878 C 11.009,90.359 7.947,88.617 7.947,83.797 l 0,-74.334 c 0,-4.764 3.062,-6.52 7.722,-7.853 l 0,-1.881 C 14.644,-0.271 2.173,0 0,0"
             inkscape:connector-curvature="0"
             id="path282"
             style="fill:#7c7976;fill-opacity:1;fill-rule:nonzero;stroke:none" /></g><g
           transform="translate(1915.2773,71.8076)"
           id="g284"><path
             d="m 0,0 c -2.452,0 -12.834,-0.271 -13.979,-0.271 l 0,1.881 c 4.803,1.027 7.582,3.244 7.582,7.853 l 0,74.334 c 0,4.666 -2.779,6.849 -7.582,7.883 l 0,1.878 c 0.999,0 11.527,-0.287 13.979,-0.287 2.214,0 14.539,0.287 15.676,0.287 l 0,-1.878 C 11.039,90.359 7.971,88.617 7.971,83.797 l 0,-74.334 c 0,-4.764 3.068,-6.52 7.705,-7.853 l 0,-1.881 C 14.673,-0.271 2.214,0 0,0"
             inkscape:connector-curvature="0"
             id="path286"
             style="fill:#7c7976;fill-opacity:1;fill-rule:nonzero;stroke:none" /></g><g
           transform="translate(1673.0889,149.2632)"
           id="g288"><path
             d="m 0,0 -1.897,0 c -2.03,8.308 -5.518,10.782 -11.797,10.782 l -20.254,0 0,-78.473 c 0,-3.764 4.245,-7.006 8.61,-8.008 l 0,-1.874 c -1.757,0 -14.642,0.263 -17.112,0.263 -2.183,0 -12.236,-0.263 -14.129,-0.263 l 0,1.874 c 4.209,0.88 8.289,4.244 8.289,8.008 l 0,78.473 -20.254,0 c -6.111,0 -9.61,-2.336 -11.8,-10.782 l -1.876,0 -0.314,16.832 c 4.95,-0.288 10.805,-0.867 40.365,-0.867 29.584,0 37.515,0.579 42.488,0.867 L 0,0 z"
             inkscape:connector-curvature="0"
             id="path290"
             style="fill:#7c7976;fill-opacity:1;fill-rule:nonzero;stroke:none" /></g><g
           transform="translate(1889.1094,149.2632)"
           id="g292"><path
             d="M 0,0 -1.891,0 C -3.913,8.308 -7.42,10.782 -13.713,10.782 l -20.24,0 0,-78.473 c 0,-3.764 4.226,-7.006 8.611,-8.008 l 0,-1.874 c -1.755,0 -14.641,0.263 -17.124,0.263 -2.172,0 -12.241,-0.263 -14.125,-0.263 l 0,1.874 c 4.216,0.88 8.303,4.244 8.303,8.008 l 0,78.473 -20.25,0 c -6.121,0 -9.615,-2.336 -11.829,-10.782 l -1.872,0 -0.294,16.832 c 4.955,-0.288 10.781,-0.867 40.383,-0.867 29.563,0 37.492,0.579 42.45,0.867 L 0,0 z"
             inkscape:connector-curvature="0"
             id="path294"
             style="fill:#7c7976;fill-opacity:1;fill-rule:nonzero;stroke:none" /></g><g
           transform="translate(1766.834,147.019)"
           id="g296"><path
             d="m 0,0 -16.762,-41.531 32.503,0 L 0,0 z m 35.91,-75.211 c -2.198,0 -12.882,-0.271 -15.056,-0.271 l 0,1.881 c 3.927,1.333 4.802,3.518 4.35,6.123 -0.139,1.183 -1.304,4.515 -1.729,5.549 l -5.945,15.262 -36.207,0 -5.524,-13.204 c -0.574,-1.336 -2.028,-6.424 -2.176,-7.178 -0.573,-3.034 1.187,-5.219 5.248,-6.552 l 0,-1.881 c -1.749,0 -7.855,0.271 -9.767,0.271 -1.878,0 -7.397,-0.271 -9.719,-0.271 l 0,1.881 c 5.381,1.906 6.985,4.668 9.021,9.792 L -2.309,8.586 c 1.317,3.209 3.376,10.641 3.376,10.641 l 8.173,0 c 0,0 1.894,-7.432 3.041,-10.641 l 27.127,-72.395 c 2.03,-5.401 4.062,-8.314 9.446,-9.792 l 0,-1.881 c -2.169,0 -10.759,0.271 -12.944,0.271"
             inkscape:connector-curvature="0"
             id="path298"
             style="fill:#7c7976;fill-opacity:1;fill-rule:nonzero;stroke:none" /></g><g
           transform="translate(2104.623,71.167)"
           id="g300"><path
             d="m 0,0 c -7.402,0.735 -12.372,0.735 -21.713,0.735 l -29.929,0 c -2.489,0 -11.373,-0.305 -13.254,-0.305 l 0,1.904 c 4.521,0.885 7.002,4.523 7.002,8.315 l 0,73.86 c 0,3.654 -2.628,6.857 -7.002,7.886 l 0,1.88 57.494,0 c 1.579,0 4.07,0.289 5.672,1.165 l 1.879,0 -0.301,-15.707 -1.877,0 c -1.917,5.825 -6.27,9.31 -13.849,9.31 l -27.702,0 0,-36.828 24.656,0 c 4.06,0 6.4,1.302 8.276,4.806 l 1.913,0 c -0.144,-1.455 -0.144,-5.58 -0.144,-7.338 0,-1.589 0.144,-5.805 0.144,-7.416 l -1.913,0 c -1.876,3.367 -4.216,4.809 -8.276,4.809 l -24.656,0 0,-41.493 27.414,0 c 9.323,0 13.842,2.913 16.464,8.753 L 2.197,13.891 0,0 z"
             inkscape:connector-curvature="0"
             id="path302"
             style="fill:#7c7976;fill-opacity:1;fill-rule:nonzero;stroke:none" /></g><path
           d="m 199.858,52.172 -1.081,0 0,132.963 1.081,0 0,-132.963 z"
           inkscape:connector-curvature="0"
           id="path304"
           style="fill:#7c7976;fill-opacity:1;fill-rule:nonzero;stroke:none" /></g></g></g></svg>